<mxfile host="app.diagrams.net" modified="2023-11-20T14:43:25.624Z" agent="Mozilla/5.0 (Windows NT 10.0; Win64; x64) AppleWebKit/537.36 (KHTML, like Gecko) Chrome/119.0.0.0 Safari/537.36" etag="YYEKTlQBap-UXrbt6Zha" version="22.1.3" type="github">
  <diagram name="第 1 页" id="l63paUcN-cI1twzz8yY3">
    <mxGraphModel dx="2261" dy="746" grid="1" gridSize="10" guides="1" tooltips="1" connect="1" arrows="1" fold="1" page="1" pageScale="1" pageWidth="827" pageHeight="1169" math="0" shadow="0">
      <root>
        <mxCell id="0" />
        <mxCell id="1" parent="0" />
        <mxCell id="Lg7P1bCRlYR49XmwHThc-2" value="Clip" style="text;html=1;strokeColor=#6c8ebf;fillColor=#dae8fc;align=center;verticalAlign=middle;whiteSpace=wrap;rounded=0;" vertex="1" parent="1">
          <mxGeometry x="-80" y="310" width="60" height="30" as="geometry" />
        </mxCell>
        <mxCell id="Lg7P1bCRlYR49XmwHThc-7" style="edgeStyle=orthogonalEdgeStyle;rounded=0;orthogonalLoop=1;jettySize=auto;html=1;exitX=0.5;exitY=1;exitDx=0;exitDy=0;entryX=0.5;entryY=0;entryDx=0;entryDy=0;" edge="1" parent="1" source="Lg7P1bCRlYR49XmwHThc-5" target="Lg7P1bCRlYR49XmwHThc-6">
          <mxGeometry relative="1" as="geometry" />
        </mxCell>
        <mxCell id="Lg7P1bCRlYR49XmwHThc-5" value="文本" style="rounded=1;whiteSpace=wrap;html=1;" vertex="1" parent="1">
          <mxGeometry x="40" y="90" width="120" height="60" as="geometry" />
        </mxCell>
        <mxCell id="Lg7P1bCRlYR49XmwHThc-22" style="edgeStyle=orthogonalEdgeStyle;rounded=0;orthogonalLoop=1;jettySize=auto;html=1;exitX=0.5;exitY=1;exitDx=0;exitDy=0;entryX=0.5;entryY=0;entryDx=0;entryDy=0;" edge="1" parent="1" source="Lg7P1bCRlYR49XmwHThc-6" target="Lg7P1bCRlYR49XmwHThc-8">
          <mxGeometry relative="1" as="geometry" />
        </mxCell>
        <mxCell id="Lg7P1bCRlYR49XmwHThc-6" value="Tokenizer" style="rounded=1;whiteSpace=wrap;html=1;" vertex="1" parent="1">
          <mxGeometry x="40" y="210" width="120" height="60" as="geometry" />
        </mxCell>
        <mxCell id="Lg7P1bCRlYR49XmwHThc-12" style="edgeStyle=orthogonalEdgeStyle;rounded=0;orthogonalLoop=1;jettySize=auto;html=1;exitX=1;exitY=0.5;exitDx=0;exitDy=0;entryX=0;entryY=0.5;entryDx=0;entryDy=0;" edge="1" parent="1" source="Lg7P1bCRlYR49XmwHThc-8" target="Lg7P1bCRlYR49XmwHThc-9">
          <mxGeometry relative="1" as="geometry" />
        </mxCell>
        <mxCell id="Lg7P1bCRlYR49XmwHThc-8" value="ClipTextTransformer" style="rounded=1;whiteSpace=wrap;html=1;" vertex="1" parent="1">
          <mxGeometry x="40" y="350" width="120" height="60" as="geometry" />
        </mxCell>
        <mxCell id="Lg7P1bCRlYR49XmwHThc-17" style="edgeStyle=orthogonalEdgeStyle;rounded=0;orthogonalLoop=1;jettySize=auto;html=1;exitX=1;exitY=0.5;exitDx=0;exitDy=0;entryX=0;entryY=0.5;entryDx=0;entryDy=0;" edge="1" parent="1" source="Lg7P1bCRlYR49XmwHThc-9" target="Lg7P1bCRlYR49XmwHThc-15">
          <mxGeometry relative="1" as="geometry" />
        </mxCell>
        <mxCell id="Lg7P1bCRlYR49XmwHThc-9" value="ClipTextEmbeddings" style="rounded=1;whiteSpace=wrap;html=1;" vertex="1" parent="1">
          <mxGeometry x="210" y="350" width="120" height="60" as="geometry" />
        </mxCell>
        <mxCell id="Lg7P1bCRlYR49XmwHThc-27" style="edgeStyle=orthogonalEdgeStyle;rounded=0;orthogonalLoop=1;jettySize=auto;html=1;exitX=1;exitY=0.5;exitDx=0;exitDy=0;" edge="1" parent="1" source="Lg7P1bCRlYR49XmwHThc-10" target="Lg7P1bCRlYR49XmwHThc-26">
          <mxGeometry relative="1" as="geometry" />
        </mxCell>
        <mxCell id="Lg7P1bCRlYR49XmwHThc-10" value="ClipEncoder" style="rounded=1;whiteSpace=wrap;html=1;" vertex="1" parent="1">
          <mxGeometry x="210" y="570" width="120" height="60" as="geometry" />
        </mxCell>
        <mxCell id="Lg7P1bCRlYR49XmwHThc-11" value="LayerNorm" style="rounded=1;whiteSpace=wrap;html=1;" vertex="1" parent="1">
          <mxGeometry x="210" y="1200" width="120" height="60" as="geometry" />
        </mxCell>
        <mxCell id="Lg7P1bCRlYR49XmwHThc-18" style="edgeStyle=orthogonalEdgeStyle;rounded=0;orthogonalLoop=1;jettySize=auto;html=1;exitX=0.5;exitY=1;exitDx=0;exitDy=0;entryX=0.5;entryY=0;entryDx=0;entryDy=0;" edge="1" parent="1" source="Lg7P1bCRlYR49XmwHThc-15" target="Lg7P1bCRlYR49XmwHThc-16">
          <mxGeometry relative="1" as="geometry" />
        </mxCell>
        <mxCell id="Lg7P1bCRlYR49XmwHThc-15" value="token_embedding" style="rounded=1;whiteSpace=wrap;html=1;" vertex="1" parent="1">
          <mxGeometry x="420" y="350" width="120" height="60" as="geometry" />
        </mxCell>
        <mxCell id="Lg7P1bCRlYR49XmwHThc-24" style="edgeStyle=orthogonalEdgeStyle;rounded=0;orthogonalLoop=1;jettySize=auto;html=1;exitX=0;exitY=0.5;exitDx=0;exitDy=0;entryX=1;entryY=0.5;entryDx=0;entryDy=0;" edge="1" parent="1" source="Lg7P1bCRlYR49XmwHThc-16" target="Lg7P1bCRlYR49XmwHThc-23">
          <mxGeometry relative="1" as="geometry" />
        </mxCell>
        <mxCell id="Lg7P1bCRlYR49XmwHThc-16" value="position_embedding" style="rounded=1;whiteSpace=wrap;html=1;" vertex="1" parent="1">
          <mxGeometry x="420" y="450" width="120" height="60" as="geometry" />
        </mxCell>
        <mxCell id="Lg7P1bCRlYR49XmwHThc-20" style="edgeStyle=orthogonalEdgeStyle;rounded=0;orthogonalLoop=1;jettySize=auto;html=1;exitX=0;exitY=0.5;exitDx=0;exitDy=0;entryX=1;entryY=0.5;entryDx=0;entryDy=0;" edge="1" parent="1" source="Lg7P1bCRlYR49XmwHThc-19" target="Lg7P1bCRlYR49XmwHThc-16">
          <mxGeometry relative="1" as="geometry" />
        </mxCell>
        <mxCell id="Lg7P1bCRlYR49XmwHThc-19" value="position_ids" style="rounded=1;whiteSpace=wrap;html=1;" vertex="1" parent="1">
          <mxGeometry x="650" y="450" width="120" height="60" as="geometry" />
        </mxCell>
        <mxCell id="Lg7P1bCRlYR49XmwHThc-25" style="edgeStyle=orthogonalEdgeStyle;rounded=0;orthogonalLoop=1;jettySize=auto;html=1;exitX=0.5;exitY=1;exitDx=0;exitDy=0;entryX=0.5;entryY=0;entryDx=0;entryDy=0;" edge="1" parent="1" source="Lg7P1bCRlYR49XmwHThc-23" target="Lg7P1bCRlYR49XmwHThc-10">
          <mxGeometry relative="1" as="geometry" />
        </mxCell>
        <mxCell id="Lg7P1bCRlYR49XmwHThc-23" value="causal_attention_mask" style="rounded=1;whiteSpace=wrap;html=1;" vertex="1" parent="1">
          <mxGeometry x="210" y="450" width="120" height="60" as="geometry" />
        </mxCell>
        <mxCell id="Lg7P1bCRlYR49XmwHThc-37" style="edgeStyle=orthogonalEdgeStyle;rounded=0;orthogonalLoop=1;jettySize=auto;html=1;exitX=1;exitY=0.5;exitDx=0;exitDy=0;entryX=0;entryY=0.5;entryDx=0;entryDy=0;" edge="1" parent="1" source="Lg7P1bCRlYR49XmwHThc-26" target="Lg7P1bCRlYR49XmwHThc-28">
          <mxGeometry relative="1" as="geometry" />
        </mxCell>
        <mxCell id="Lg7P1bCRlYR49XmwHThc-26" value="ClipEncoderLayer(s)" style="rounded=1;whiteSpace=wrap;html=1;" vertex="1" parent="1">
          <mxGeometry x="420" y="570" width="120" height="60" as="geometry" />
        </mxCell>
        <mxCell id="Lg7P1bCRlYR49XmwHThc-38" style="edgeStyle=orthogonalEdgeStyle;rounded=0;orthogonalLoop=1;jettySize=auto;html=1;exitX=0.5;exitY=1;exitDx=0;exitDy=0;entryX=0.5;entryY=0;entryDx=0;entryDy=0;" edge="1" parent="1" source="Lg7P1bCRlYR49XmwHThc-28" target="Lg7P1bCRlYR49XmwHThc-29">
          <mxGeometry relative="1" as="geometry" />
        </mxCell>
        <mxCell id="Lg7P1bCRlYR49XmwHThc-28" value="layer_norm1" style="rounded=1;whiteSpace=wrap;html=1;" vertex="1" parent="1">
          <mxGeometry x="650" y="570" width="120" height="60" as="geometry" />
        </mxCell>
        <mxCell id="Lg7P1bCRlYR49XmwHThc-39" style="edgeStyle=orthogonalEdgeStyle;rounded=0;orthogonalLoop=1;jettySize=auto;html=1;exitX=0.5;exitY=1;exitDx=0;exitDy=0;entryX=0.5;entryY=0;entryDx=0;entryDy=0;" edge="1" parent="1" source="Lg7P1bCRlYR49XmwHThc-29" target="Lg7P1bCRlYR49XmwHThc-30">
          <mxGeometry relative="1" as="geometry" />
        </mxCell>
        <mxCell id="Lg7P1bCRlYR49XmwHThc-29" value="self_attn(ClipAttension)" style="rounded=1;whiteSpace=wrap;html=1;fillColor=#dae8fc;strokeColor=#6c8ebf;" vertex="1" parent="1">
          <mxGeometry x="650" y="670" width="120" height="60" as="geometry" />
        </mxCell>
        <mxCell id="Lg7P1bCRlYR49XmwHThc-40" style="edgeStyle=orthogonalEdgeStyle;rounded=0;orthogonalLoop=1;jettySize=auto;html=1;exitX=0.5;exitY=1;exitDx=0;exitDy=0;entryX=0.5;entryY=0;entryDx=0;entryDy=0;" edge="1" parent="1" source="Lg7P1bCRlYR49XmwHThc-30" target="Lg7P1bCRlYR49XmwHThc-31">
          <mxGeometry relative="1" as="geometry" />
        </mxCell>
        <mxCell id="Lg7P1bCRlYR49XmwHThc-30" value="xs + residual" style="rounded=1;whiteSpace=wrap;html=1;" vertex="1" parent="1">
          <mxGeometry x="650" y="770" width="120" height="60" as="geometry" />
        </mxCell>
        <mxCell id="Lg7P1bCRlYR49XmwHThc-41" style="edgeStyle=orthogonalEdgeStyle;rounded=0;orthogonalLoop=1;jettySize=auto;html=1;exitX=0.5;exitY=1;exitDx=0;exitDy=0;entryX=0.5;entryY=0;entryDx=0;entryDy=0;" edge="1" parent="1" source="Lg7P1bCRlYR49XmwHThc-31" target="Lg7P1bCRlYR49XmwHThc-32">
          <mxGeometry relative="1" as="geometry" />
        </mxCell>
        <mxCell id="Lg7P1bCRlYR49XmwHThc-31" value="layer_norm2" style="rounded=1;whiteSpace=wrap;html=1;" vertex="1" parent="1">
          <mxGeometry x="650" y="880" width="120" height="60" as="geometry" />
        </mxCell>
        <mxCell id="Lg7P1bCRlYR49XmwHThc-42" style="edgeStyle=orthogonalEdgeStyle;rounded=0;orthogonalLoop=1;jettySize=auto;html=1;exitX=1;exitY=0.5;exitDx=0;exitDy=0;entryX=0;entryY=0.5;entryDx=0;entryDy=0;" edge="1" parent="1" source="Lg7P1bCRlYR49XmwHThc-32" target="Lg7P1bCRlYR49XmwHThc-34">
          <mxGeometry relative="1" as="geometry" />
        </mxCell>
        <mxCell id="Lg7P1bCRlYR49XmwHThc-32" value="mlp" style="rounded=1;whiteSpace=wrap;html=1;" vertex="1" parent="1">
          <mxGeometry x="650" y="990" width="120" height="60" as="geometry" />
        </mxCell>
        <mxCell id="Lg7P1bCRlYR49XmwHThc-46" style="edgeStyle=orthogonalEdgeStyle;rounded=0;orthogonalLoop=1;jettySize=auto;html=1;exitX=0;exitY=0.5;exitDx=0;exitDy=0;entryX=1;entryY=0.5;entryDx=0;entryDy=0;" edge="1" parent="1" source="Lg7P1bCRlYR49XmwHThc-33" target="Lg7P1bCRlYR49XmwHThc-11">
          <mxGeometry relative="1" as="geometry" />
        </mxCell>
        <mxCell id="Lg7P1bCRlYR49XmwHThc-33" value="xs + residual" style="rounded=1;whiteSpace=wrap;html=1;" vertex="1" parent="1">
          <mxGeometry x="650" y="1200" width="120" height="60" as="geometry" />
        </mxCell>
        <mxCell id="Lg7P1bCRlYR49XmwHThc-43" style="edgeStyle=orthogonalEdgeStyle;rounded=0;orthogonalLoop=1;jettySize=auto;html=1;exitX=0.5;exitY=1;exitDx=0;exitDy=0;entryX=0.5;entryY=0;entryDx=0;entryDy=0;" edge="1" parent="1" source="Lg7P1bCRlYR49XmwHThc-34" target="Lg7P1bCRlYR49XmwHThc-35">
          <mxGeometry relative="1" as="geometry" />
        </mxCell>
        <mxCell id="Lg7P1bCRlYR49XmwHThc-34" value="fc1(Linear1)" style="rounded=1;whiteSpace=wrap;html=1;" vertex="1" parent="1">
          <mxGeometry x="870" y="990" width="120" height="60" as="geometry" />
        </mxCell>
        <mxCell id="Lg7P1bCRlYR49XmwHThc-44" style="edgeStyle=orthogonalEdgeStyle;rounded=0;orthogonalLoop=1;jettySize=auto;html=1;exitX=0.5;exitY=1;exitDx=0;exitDy=0;entryX=0.5;entryY=0;entryDx=0;entryDy=0;" edge="1" parent="1" source="Lg7P1bCRlYR49XmwHThc-35" target="Lg7P1bCRlYR49XmwHThc-36">
          <mxGeometry relative="1" as="geometry" />
        </mxCell>
        <mxCell id="Lg7P1bCRlYR49XmwHThc-35" value="Activation" style="rounded=1;whiteSpace=wrap;html=1;" vertex="1" parent="1">
          <mxGeometry x="870" y="1090" width="120" height="60" as="geometry" />
        </mxCell>
        <mxCell id="Lg7P1bCRlYR49XmwHThc-45" style="edgeStyle=orthogonalEdgeStyle;rounded=0;orthogonalLoop=1;jettySize=auto;html=1;exitX=0;exitY=0.5;exitDx=0;exitDy=0;entryX=1;entryY=0.5;entryDx=0;entryDy=0;" edge="1" parent="1" source="Lg7P1bCRlYR49XmwHThc-36" target="Lg7P1bCRlYR49XmwHThc-33">
          <mxGeometry relative="1" as="geometry" />
        </mxCell>
        <mxCell id="Lg7P1bCRlYR49XmwHThc-36" value="fc1(Linear1)" style="rounded=1;whiteSpace=wrap;html=1;" vertex="1" parent="1">
          <mxGeometry x="870" y="1200" width="120" height="60" as="geometry" />
        </mxCell>
        <mxCell id="Lg7P1bCRlYR49XmwHThc-47" value="经历 n 层 layers" style="text;html=1;strokeColor=none;fillColor=none;align=center;verticalAlign=middle;whiteSpace=wrap;rounded=0;" vertex="1" parent="1">
          <mxGeometry x="420" y="1200" width="60" height="30" as="geometry" />
        </mxCell>
        <mxCell id="Lg7P1bCRlYR49XmwHThc-48" value="xs" style="rounded=1;whiteSpace=wrap;html=1;" vertex="1" parent="1">
          <mxGeometry x="30" y="1390" width="120" height="60" as="geometry" />
        </mxCell>
      </root>
    </mxGraphModel>
  </diagram>
</mxfile>
